<svg width="121" height="32" viewBox="0 0 121 32" fill="none" xmlns="http://www.w3.org/2000/svg">
<path d="M36.5325 13.9109L38.7542 2.56323L42.3772 10.7664L46.1301 2.56323L48.1262 13.9109H46.4924L45.4739 7.53979L42.3499 14.3962L39.3147 7.53296L38.1799 13.9109H36.5325ZM54.9827 7.25269H56.5276V13.9109H54.9827V13.2136C54.3492 13.8061 53.6679 14.1023 52.9387 14.1023C52.0181 14.1023 51.2571 13.7696 50.6555 13.1042C50.0585 12.4252 49.76 11.5776 49.76 10.5613C49.76 9.56323 50.0585 8.73153 50.6555 8.06616C51.2525 7.4008 51.9999 7.06812 52.8977 7.06812C53.6724 7.06812 54.3674 7.38713 54.9827 8.02515V7.25269ZM51.3323 10.5613C51.3323 11.1993 51.5032 11.7188 51.845 12.1199C52.1959 12.5255 52.6379 12.7283 53.1711 12.7283C53.7408 12.7283 54.2011 12.5323 54.552 12.1404C54.9029 11.7348 55.0784 11.2198 55.0784 10.5955C55.0784 9.97111 54.9029 9.45614 54.552 9.05054C54.2011 8.65405 53.7454 8.45581 53.1848 8.45581C52.6562 8.45581 52.2141 8.65633 51.8586 9.05737C51.5077 9.46297 51.3323 9.96427 51.3323 10.5613ZM63.3772 2.36499H64.9221V13.9109H63.3772V13.2136C62.7711 13.8061 62.0852 14.1023 61.3196 14.1023C60.4081 14.1023 59.6516 13.7696 59.05 13.1042C58.453 12.4252 58.1545 11.5776 58.1545 10.5613C58.1545 9.56779 58.453 8.73836 59.05 8.073C59.6425 7.40308 60.3876 7.06812 61.2854 7.06812C62.0647 7.06812 62.762 7.38713 63.3772 8.02515V2.36499ZM59.7268 10.5613C59.7268 11.1993 59.8977 11.7188 60.2395 12.1199C60.5904 12.5255 61.0325 12.7283 61.5657 12.7283C62.1353 12.7283 62.5956 12.5323 62.9465 12.1404C63.2974 11.7348 63.4729 11.2198 63.4729 10.5955C63.4729 9.97111 63.2974 9.45614 62.9465 9.05054C62.5956 8.65405 62.1399 8.45581 61.5793 8.45581C61.0507 8.45581 60.6086 8.65633 60.2532 9.05737C59.9023 9.46297 59.7268 9.96427 59.7268 10.5613ZM72.927 10.9441H68.1555C68.1965 11.491 68.3743 11.9262 68.6887 12.2498C69.0032 12.5688 69.4065 12.7283 69.8987 12.7283C70.2815 12.7283 70.5982 12.6371 70.8489 12.4548C71.095 12.2725 71.3752 11.9353 71.6897 11.4431L72.9885 12.1677C72.788 12.5095 72.5761 12.8035 72.3528 13.0496C72.1295 13.2911 71.8902 13.4916 71.635 13.6511C71.3798 13.8061 71.1041 13.92 70.8079 13.9929C70.5116 14.0658 70.1903 14.1023 69.844 14.1023C68.8505 14.1023 68.053 13.7833 67.4514 13.1453C66.8499 12.5027 66.5491 11.6505 66.5491 10.5886C66.5491 9.53589 66.8407 8.68368 67.4241 8.03198C68.012 7.3894 68.7913 7.06812 69.762 7.06812C70.7418 7.06812 71.5165 7.38029 72.0862 8.00464C72.6513 8.62443 72.9338 9.48348 72.9338 10.5818L72.927 10.9441ZM71.3479 9.68628C71.1337 8.86597 70.6165 8.45581 69.7961 8.45581C69.6093 8.45581 69.4338 8.48543 69.2698 8.54468C69.1057 8.59937 68.9553 8.6814 68.8186 8.79077C68.6864 8.89559 68.5725 9.02319 68.4768 9.17358C68.3811 9.32397 68.3082 9.49487 68.2581 9.68628H71.3479ZM42.1721 18.8533H38.4944V21.3894H42.0422V22.8865H38.4944V27.9109H36.9016V17.3562H42.1721V18.8533ZM43.2932 24.5339C43.2932 23.5723 43.6373 22.7543 44.3254 22.0798C45.0136 21.4054 45.8521 21.0681 46.8411 21.0681C47.8346 21.0681 48.6777 21.4076 49.3704 22.0867C50.054 22.7657 50.3958 23.5997 50.3958 24.5886C50.3958 25.5867 50.0517 26.4229 49.3635 27.0974C48.6708 27.7673 47.8209 28.1023 46.8137 28.1023C45.8157 28.1023 44.9794 27.7605 44.3049 27.0769C43.6305 26.4024 43.2932 25.5548 43.2932 24.5339ZM44.8655 24.5613C44.8655 25.2266 45.0432 25.753 45.3987 26.1404C45.7633 26.5323 46.2441 26.7283 46.8411 26.7283C47.4426 26.7283 47.9234 26.5346 48.2834 26.1472C48.6435 25.7598 48.8235 25.2426 48.8235 24.5955C48.8235 23.9483 48.6435 23.4311 48.2834 23.0437C47.9189 22.6518 47.4381 22.4558 46.8411 22.4558C46.2532 22.4558 45.7769 22.6518 45.4124 23.0437C45.0478 23.4356 44.8655 23.9415 44.8655 24.5613ZM52.0295 21.2527H53.5676V21.8474C53.8502 21.5512 54.1008 21.3484 54.3196 21.239C54.5429 21.1251 54.8072 21.0681 55.1125 21.0681C55.5181 21.0681 55.942 21.2003 56.384 21.4646L55.6799 22.8728C55.3883 22.6632 55.1034 22.5583 54.8254 22.5583C53.9869 22.5583 53.5676 23.1918 53.5676 24.4587V27.9109H52.0295V21.2527ZM63.4729 23.6248V27.9109H61.8801V17.3562H63.6848C64.5689 17.3562 65.2366 17.4177 65.6877 17.5408C66.1435 17.6638 66.5445 17.8962 66.8909 18.238C67.497 18.8305 67.8 19.5779 67.8 20.4802C67.8 21.4464 67.4765 22.212 66.8293 22.7771C66.1822 23.3422 65.3095 23.6248 64.2112 23.6248H63.4729ZM63.4729 22.1482H64.0676C65.5305 22.1482 66.262 21.5854 66.262 20.4597C66.262 19.3705 65.5077 18.8259 63.9993 18.8259H63.4729V22.1482ZM74.8547 24.9441H70.0833C70.1243 25.491 70.302 25.9262 70.6165 26.2498C70.9309 26.5688 71.3342 26.7283 71.8264 26.7283C72.2092 26.7283 72.526 26.6371 72.7766 26.4548C73.0227 26.2725 73.303 25.9353 73.6174 25.4431L74.9163 26.1677C74.7157 26.5095 74.5038 26.8035 74.2805 27.0496C74.0572 27.2911 73.818 27.4916 73.5627 27.6511C73.3075 27.8061 73.0318 27.92 72.7356 27.9929C72.4394 28.0658 72.1181 28.1023 71.7717 28.1023C70.7782 28.1023 69.9807 27.7833 69.3792 27.1453C68.7776 26.5027 68.4768 25.6505 68.4768 24.5886C68.4768 23.5359 68.7685 22.6837 69.3518 22.032C69.9397 21.3894 70.719 21.0681 71.6897 21.0681C72.6695 21.0681 73.4443 21.3803 74.0139 22.0046C74.579 22.6244 74.8616 23.4835 74.8616 24.5818L74.8547 24.9441ZM73.2756 23.6863C73.0614 22.866 72.5442 22.4558 71.7239 22.4558C71.537 22.4558 71.3616 22.4854 71.1975 22.5447C71.0334 22.5994 70.8831 22.6814 70.7463 22.7908C70.6142 22.8956 70.5002 23.0232 70.4045 23.1736C70.3088 23.324 70.2359 23.4949 70.1858 23.6863H73.2756ZM78.2522 22.6882V27.9109H76.7141V22.6882H76.0579V21.2527H76.7141V18.8123H78.2522V21.2527H79.4485V22.6882H78.2522ZM84.3635 22.3875L83.092 23.0642C82.8915 22.6541 82.6431 22.449 82.3469 22.449C82.2056 22.449 82.0849 22.4968 81.9846 22.5925C81.8844 22.6837 81.8342 22.8022 81.8342 22.948C81.8342 23.2032 82.1305 23.4561 82.7229 23.7068C83.5387 24.0577 84.0878 24.3813 84.3704 24.6775C84.6529 24.9737 84.7942 25.3725 84.7942 25.8738C84.7942 26.5164 84.5572 27.0541 84.0833 27.4871C83.623 27.8972 83.067 28.1023 82.4153 28.1023C81.2987 28.1023 80.5081 27.5577 80.0432 26.4685L81.3557 25.8601C81.538 26.1791 81.677 26.3819 81.7727 26.4685C81.9596 26.6417 82.1829 26.7283 82.4426 26.7283C82.9622 26.7283 83.2219 26.4913 83.2219 26.0173C83.2219 25.7439 83.0214 25.4887 82.6204 25.2517C82.4654 25.1742 82.3105 25.099 82.1555 25.0261C82.0006 24.9532 81.8433 24.878 81.6838 24.8005C81.2372 24.5818 80.9228 24.363 80.7405 24.1443C80.5081 23.8663 80.3918 23.5085 80.3918 23.071C80.3918 22.4923 80.5901 22.0138 80.9866 21.6355C81.3922 21.2572 81.8844 21.0681 82.4631 21.0681C83.3153 21.0681 83.9488 21.5079 84.3635 22.3875Z" fill="white"/>
<rect y="0.253418" width="31.2063" height="31.2063" rx="7.4589" fill="#F4F4F4"/>
<rect x="7.94336" y="7.06201" width="7.37603" height="19.2911" rx="2.4863" fill="#263238"/>
<rect x="10.7805" y="7.06201" width="14.1847" height="14.1847" rx="7.09233" fill="#9265F2"/>
<path d="M15.0232 7.62939C15.208 7.85624 15.3196 8.15069 15.3196 8.47247V20.6793C12.6837 19.7706 10.7805 17.1679 10.7805 14.0991C10.7805 11.1465 12.5422 8.6255 15.0232 7.62939Z" fill="#2CECE0"/>
</svg>
