<svg width="24" height="23" viewBox="0 0 24 23" fill="none" xmlns="http://www.w3.org/2000/svg">
<path fill-rule="evenodd" clip-rule="evenodd" d="M12 20.5189C13.7116 20.5212 15.3935 20.1093 16.875 19.3249V16.4016C16.875 15.5826 16.5194 14.7972 15.8865 14.2181C15.2535 13.639 14.3951 13.3136 13.5 13.3136H10.5C9.60489 13.3136 8.74645 13.639 8.11351 14.2181C7.48058 14.7972 7.125 15.5826 7.125 16.4016V19.3249C8.60649 20.1093 10.2884 20.5212 12 20.5189ZM19.125 16.4016V17.6876C20.4221 16.4171 21.2851 14.8276 21.6081 13.1144C21.9311 11.4012 21.6999 9.63897 20.943 8.04436C20.1861 6.44975 18.9364 5.09225 17.3476 4.13872C15.7588 3.1852 13.9001 2.67722 12 2.67722C10.0999 2.67722 8.2412 3.1852 6.65239 4.13872C5.06359 5.09225 3.81392 6.44975 3.057 8.04436C2.30008 9.63897 2.06891 11.4012 2.39189 13.1144C2.71488 14.8276 3.57794 16.4171 4.875 17.6876V16.4016C4.87499 15.3406 5.23322 14.3054 5.9007 13.4377C6.56819 12.57 7.51233 11.9122 8.604 11.5542C8.03758 10.9581 7.67052 10.2255 7.5466 9.44379C7.42268 8.66209 7.54713 7.86427 7.90511 7.1455C8.26309 6.42673 8.83949 5.81734 9.56555 5.39002C10.2916 4.96271 11.1367 4.7355 12 4.7355C12.8633 4.7355 13.7084 4.96271 14.4344 5.39002C15.1605 5.81734 15.7369 6.42673 16.0949 7.1455C16.4529 7.86427 16.5773 8.66209 16.4534 9.44379C16.3295 10.2255 15.9624 10.9581 15.396 11.5542C16.4877 11.9122 17.4318 12.57 18.0993 13.4377C18.7668 14.3054 19.125 15.3406 19.125 16.4016ZM12 22.5775C15.1826 22.5775 18.2348 21.4208 20.4853 19.3617C22.7357 17.3027 24 14.51 24 11.5981C24 8.68617 22.7357 5.8935 20.4853 3.83446C18.2348 1.77541 15.1826 0.618652 12 0.618652C8.8174 0.618652 5.76516 1.77541 3.51472 3.83446C1.26428 5.8935 0 8.68617 0 11.5981C0 14.51 1.26428 17.3027 3.51472 19.3617C5.76516 21.4208 8.8174 22.5775 12 22.5775ZM14.25 8.85324C14.25 9.39923 14.0129 9.92285 13.591 10.3089C13.169 10.695 12.5967 10.9119 12 10.9119C11.4033 10.9119 10.831 10.695 10.409 10.3089C9.98705 9.92285 9.75 9.39923 9.75 8.85324C9.75 8.30725 9.98705 7.78363 10.409 7.39755C10.831 7.01148 11.4033 6.79459 12 6.79459C12.5967 6.79459 13.169 7.01148 13.591 7.39755C14.0129 7.78363 14.25 8.30725 14.25 8.85324Z" fill="black"/>
</svg>
